<svg xmlns="http://www.w3.org/2000/svg" viewBox="0 0 310 352"><defs><style>.cls-1{fill:#333;}</style></defs><title>CTFlogo</title><g id="Layer_2" data-name="Layer 2"><g id="Layer_9" data-name="Layer 9"><path class="cls-1" d="M240.67,352H69.33C31.1,352,0,322.68,0,286.65V124.15H310V286.65C310,322.68,278.9,352,240.67,352ZM20,144.15V286.65c0,25,22.13,45.35,49.33,45.35H240.67c27.2,0,49.33-20.34,49.33-45.35V144.15Z"/><path class="cls-1" d="M282,144.15H28V64.1C28,28.76,55.19,0,88.62,0H221.38C254.81,0,282,28.76,282,64.1Zm-234-20H262V64.1C262,39.78,243.78,20,221.38,20H88.62C66.22,20,48,39.78,48,64.1Z"/><path class="cls-1" d="M246,144.15H63V64.47A29.51,29.51,0,0,1,92.47,35H216.53A29.51,29.51,0,0,1,246,64.47Zm-163-20H226V64.47A9.48,9.48,0,0,0,216.53,55H92.47A9.48,9.48,0,0,0,83,64.47Z"/><path class="cls-1" d="M121,192"/><path class="cls-1" d="M182.92,261c-7.6,0-15.57-5.16-24-10.63-3.76-2.44-9.85-6.38-12.68-7.26-1.57.74-4.39,2.55-6.19,3.7-5.71,3.66-10.65,6.82-16,6.82v-20a4.62,4.62,0,0,0-1.29.15,51.41,51.41,0,0,0,6.54-3.81c5.62-3.6,10.93-7,16.51-7,7.6,0,15.57,5.16,24,10.63,4,2.61,10.75,7,13.24,7.41,1.86-.16,7.21-1.87,13-4.09V203.22c-4.82,1.58-9.69,2.83-13.08,2.83-7.6,0-15.57-5.16-24-10.63-3.7-2.4-9.66-6.25-12.54-7.22-1.18.66-3,1.92-4.33,2.81-5.25,3.59-11.19,7.65-18,7.65v-20a2.06,2.06,0,0,0-.36,0c1.4-.29,5-2.73,7.11-4.19,4.89-3.34,9.5-6.5,15-6.5,7.6,0,15.57,5.16,24,10.63,4,2.61,10.75,7,13.24,7.41,2.5-.21,11.33-3.24,19-6.56a10,10,0,0,1,14,9.18v54.94a10,10,0,0,1-6,9.18C204.25,255.26,190.17,261,182.92,261Zm.21-20Zm-37.58-53Zm1.58-.17Z"/><rect class="cls-1" x="105" y="174" width="20" height="134" rx="5.32" ry="5.32"/></g></g></svg>